/* XPM */
static char * sonic3_xpm[] = {
"64 64 18 1",
" 	c None",
".	c #2E2B2B",
"+	c #2E4AAF",
"@	c #669AF3",
"#	c #3D5AFF",
"$	c #EE966A",
"%	c #2D298B",
"&	c #FAD19F",
"*	c #6D94EF",
"=	c #FFFFFF",
"-	c #C0B5D4",
";	c #AC91BC",
">	c #4B692F",
",	c #D15F3F",
"'	c #654D75",
")	c #AA424E",
"!	c #F7B23E",
"~	c #E4572E",
"                                                                ",
"                                                                ",
"                                                                ",
"                                                                ",
"                                                                ",
"                                                                ",
"                                                                ",
"                                                                ",
"                                                                ",
"                                                                ",
"                                                                ",
"                                                                ",
"                                                                ",
"                                                                ",
"                           ..                                   ",
"                          .++....        .                      ",
"                      ....@#$.@@@...    .#.                     ",
"                    ..@@@%@#$$.##@@@.  .@#.                     ",
"                   .@@##.@#&&$######@..@##.                     ",
"                  .#####%@#&&&#######@@.+#.                     ",
"                 .######+##$$##########.++.                     ",
"                .##########$############.+.                     ",
"               .##+++%###################.                      ",
"              .##+++##########++##########.                     ",
"               ...**#########%=-+######%%#.                     ",
"                .*##########%====;###+%-+.                      ",
"               .#######%####%=====.+#%.-.                       ",
"              .###+++++#####+=====..%..=.                       ",
"              .##+++++#######+====..;..=.                       ",
"              .++++++.#######$-===>===.-..                      ",
"              .++++..#####++$&&&===$$,-...                      ",
"              .+....#####+++&&,&&&&&&&...                       ",
"               .   .####++++&&&$$&&&&&$.                        ",
"                  .####++++++&&&&&&&$..                         ",
"                  .###++++++.+%%%%,,.                           ",
"                  .##++++++..&$++,$&$.                          ",
"                  .#++++++..&$+##$&&&$.                         ",
"                  .++++++..&&+###&&&&&.                         ",
"                  .+++....$$$#####&&&&.                         ",
"                   .+.  .;;;..+####&&$. ...                     ",
"                    .  .;''';.+#######..'''.                    ",
"                       .''==;;.+######.;';;'.                   ",
"                       .'====;'.+###.#.;''';'.                  ",
"                       .'====;'.+##.%+.''=;';.                  ",
"                       .;=====;;.+..++.;'==;.                   ",
"                       .;======;.. .#+.;='==.                   ",
"                        .;;;;;;.;;..++.;;='.                    ",
"                         ......;==;.;;;..;.                     ",
"                           .'=====;.;==;..                      ",
"                          .;====='.;;==;.                       ",
"                          .;;;;;;;.;=='..                       ",
"                          .;;;;;;.';;;;;.                       ",
"                         .=====;)).;;;;);.                      ",
"                        .!======;).))));==..                    ",
"                       .!~~~~~~~=;.)));===~~.                   ",
"                       .)~~~~~~~~;.));;==~~~~.                  ",
"                       .)~~~~~~~~).;;;;;~~~~~~.                 ",
"                       .;;;------'.';;;;----;;.                 ",
"                        .......... ...........                  ",
"                                                                ",
"                                                                ",
"                                                                ",
"                                                                ",
"                                                                "};
