/* XPM */
static char * sonic5_xpm[] = {
"64 64 18 1",
" 	c None",
".	c #2E2B2B",
"+	c #2E4AAF",
"@	c #669AF3",
"#	c #3D5AFF",
"$	c #EE966A",
"%	c #FAD19F",
"&	c #2D298B",
"*	c #FFFFFF",
"=	c #C0B5D4",
"-	c #6D94EF",
";	c #AC91BC",
">	c #4B692F",
",	c #D15F3F",
"'	c #654D75",
")	c #AA424E",
"!	c #F7B23E",
"~	c #E4572E",
"                                                                ",
"                                                                ",
"                                                                ",
"                                                                ",
"                                                                ",
"                                                                ",
"                                                                ",
"                                                                ",
"                                                                ",
"                                                                ",
"                                                                ",
"                                                                ",
"                                                                ",
"                            ..                                  ",
"                           .++...                               ",
"                        ...@#$.@@...     .                      ",
"                      ..@@.@#$$.#@@@.   .#.                     ",
"                    ..@@#.@#%%$#####@...@#.                     ",
"                   .@@###&@#%%%######@@.##.                     ",
"                  .######+##$$#########.+#.                     ",
"                 .##########$###########.+.                     ",
"                .########################..                     ",
"               .##+++&########++##########.                     ",
"              .##+++#########&*=+######&&#.                     ",
"               ...--########&****;###+&=+.                      ",
"                .-##########&*****.+#&.=.                       ",
"               .#######&####+*****..&..*.                       ",
"              .###+++++######+****..;..*.                       ",
"              .##+++++#######$=***>***.=.                       ",
"              .++++++.######$%%%***$$,=...                      ",
"              .++++..#####++%%,%%%%%%%....                      ",
"              .+....#####+++%%%$$%%%%%$.                        ",
"               .   .####+++++%%%%%%%$..                         ",
"                  .####+++++.+&&&&,,.                           ",
"                  .###+++++.%%$++,$%$.                          ",
"                  .##+++++.%%$+##$%%%$.                         ",
"                  .#+++++.$$$.###%%%%%.                         ",
"                  .++++..;''..+###%%%%. ...                     ",
"                  .+++ .;'**;;.+###%%$..'''.                    ",
"                   .+. .;****;'.+#####.;';;'.                   ",
"                    .  .'*****;'.+####.;''';'.                  ",
"                       .'******;;.##.#.''*;';.                  ",
"                        .;******;.#.&+.;'**;.                   ",
"                        .;****;..+..++.;*'**.                   ",
"                        .;;;;..++. .#+.;**'.                    ",
"                         ....;;;;;..++.;;*.                     ",
"                           .;*****;.;;;...                      ",
"                           .'*****;.;**;.                       ",
"                          .;*****'.;;**;.                       ",
"                          .;*****;.;**'.                        ",
"                          .;;;;;;.';**;;.                       ",
"                          .)))))).';;;;..                       ",
"                         .*****;)).)))));.                      ",
"                        .!******;).))));**..                    ",
"                       .!~~~~~~~*;.)));***~~.                   ",
"                       .)~~~~~~~~;.));;**~~~~.                  ",
"                       .)~~~~~~~~).;;;;;~~~~~~.                 ",
"                       .;;;======'.';;;;====;;.                 ",
"                        .......... ...........                  ",
"                                                                ",
"                                                                ",
"                                                                ",
"                                                                ",
"                                                                "};
